<?xml version="1.0" encoding="UTF-8" standalone="no"?>
<!-- Created with Inkscape (http://www.inkscape.org/) -->

<svg
   xmlns:dc="http://purl.org/dc/elements/1.1/"
   xmlns:cc="http://creativecommons.org/ns#"
   xmlns:rdf="http://www.w3.org/1999/02/22-rdf-syntax-ns#"
   xmlns:svg="http://www.w3.org/2000/svg"
   xmlns="http://www.w3.org/2000/svg"
   xmlns:sodipodi="http://sodipodi.sourceforge.net/DTD/sodipodi-0.dtd"
   xmlns:inkscape="http://www.inkscape.org/namespaces/inkscape"
   width="210mm"
   height="297mm"
   viewBox="0 0 210 297"
   version="1.1"
   id="svg8"
   sodipodi:docname="ether.svg"
   inkscape:version="0.92.4 (5da689c313, 2019-01-14)">
  <defs
     id="defs2" />
  <sodipodi:namedview
     id="base"
     pagecolor="#ffffff"
     bordercolor="#666666"
     borderopacity="1.0"
     inkscape:pageopacity="0.0"
     inkscape:pageshadow="2"
     inkscape:zoom="1.4"
     inkscape:cx="449.08258"
     inkscape:cy="842.01635"
     inkscape:document-units="mm"
     inkscape:current-layer="layer1"
     showgrid="false"
     inkscape:window-width="1920"
     inkscape:window-height="1017"
     inkscape:window-x="1592"
     inkscape:window-y="-8"
     inkscape:window-maximized="1" />
  <metadata
     id="metadata5">
    <rdf:RDF>
      <cc:Work
         rdf:about="">
        <dc:format>image/svg+xml</dc:format>
        <dc:type
           rdf:resource="http://purl.org/dc/dcmitype/StillImage" />
      </cc:Work>
    </rdf:RDF>
  </metadata>
  <g
     inkscape:label="Camada 1"
     inkscape:groupmode="layer"
     id="layer1">
    <ellipse
       style="fill:#c0c0c0;fill-opacity:1;stroke:none;stroke-width:3.6730001;stroke-miterlimit:4;stroke-dasharray:none;stroke-opacity:1"
       id="path826-1"
       cx="44.099472"
       cy="40.95578"
       rx="35.483982"
       ry="35.219398"
       inkscape:export-xdpi="17.32"
       inkscape:export-ydpi="17.32" />
    <path
       style="fill:#767676;fill-opacity:1;stroke:none;stroke-width:0.26458332px;stroke-linecap:butt;stroke-linejoin:miter;stroke-opacity:1"
       d="M 10.231262,45.343043 C 13.952836,29.694943 24.641244,3.7561929 58.423225,13.782033 49.196635,8.3331229 42.822443,6.2617029 39.833608,6.8009329 17.367849,11.558493 9.5166572,27.801923 10.231262,45.343043 Z"
       id="path832"
       inkscape:connector-curvature="0"
       sodipodi:nodetypes="cccc"
       inkscape:export-xdpi="17.32"
       inkscape:export-ydpi="17.32" />
    <path
       style="fill:#767676;fill-opacity:1;stroke:none;stroke-width:0.26458332px;stroke-linecap:butt;stroke-linejoin:miter;stroke-opacity:1"
       d="m 36.084833,30.734263 c -16.05073,14.59799 -4.168755,34.09696 18.898814,31.84449 -14.588853,5.53015 -23.699422,0.27667 -28.253721,-7.08705 -6.989958,-13.89479 2.836084,-22.40715 9.354907,-24.75744 z"
       id="path834"
       inkscape:connector-curvature="0"
       sodipodi:nodetypes="cccc"
       inkscape:export-xdpi="17.32"
       inkscape:export-ydpi="17.32" />
    <path
       style="fill:#767676;fill-opacity:1;stroke:none;stroke-width:0.26458332px;stroke-linecap:butt;stroke-linejoin:miter;stroke-opacity:1"
       d="m 71.198824,20.774593 c 12.76331,20.33506 3.55221,38.48856 -6.23661,47.15253 -17.53288,12.84189 -35.176896,7.41294 -43.278271,-0.0945 -6.823024,-7.52793 -10.14832,-25.52127 0.283482,-39.87648 7.676281,-9.1748 29.031359,-19.8312101 43.183779,2.12612 8.75544,19.63645 -12.36327,29.92157 -19.0878,26.78906 7.90614,-3.18229 13.89041,-7.03626 14.45759,-16.25298 -0.38889,-8.41159 -9.57722,-13.82635 -15.96949,-15.49702 -13.338898,-2.76718 -23.937949,6.71353 -25.607891,18.80431 -1.120075,10.63673 3.578428,20.46941 16.252977,26.26935 9.998424,3.18607 27.713954,1.96288 37.608624,-15.68601 5.82185,-10.52237 3.60431,-21.95831 -1.60639,-33.73438 z"
       id="path836"
       inkscape:connector-curvature="0"
       sodipodi:nodetypes="cccccccccccc"
       inkscape:export-xdpi="17.32"
       inkscape:export-ydpi="17.32" />
    <path
       style="fill:#e6e6e6;fill-opacity:1;stroke:none;stroke-width:0.26458332px;stroke-linecap:butt;stroke-linejoin:miter;stroke-opacity:1"
       d="m 60.580555,61.946343 c 8.87483,-3.78267 14.43449,-10.94957 14.76664,-23.4529 -0.42485,-9.92998 -7.61744,-19.14554 -14.76664,-23.18563 13.54016,14.75253 16.38895,34.95199 0,46.63853 z"
       id="path840"
       inkscape:connector-curvature="0"
       sodipodi:nodetypes="cccc"
       inkscape:export-xdpi="17.32"
       inkscape:export-ydpi="17.32" />
    <path
       style="fill:#e6e6e6;fill-opacity:1;stroke:none;stroke-width:0.26458332px;stroke-linecap:butt;stroke-linejoin:miter;stroke-opacity:1"
       d="m 37.417199,31.707563 c 10.622885,0.42273 14.615055,6.31746 15.024555,11.10305 0.53202,8.90842 -7.67917,8.95483 -13.134674,2.64583 -0.848614,5.39968 10.042604,12.21561 18.284594,3.63802 5.26115,-6.98221 2.67653,-11.63189 -1.27566,-15.875 -6.04471,-4.59812 -13.23133,-5.36911 -18.898815,-1.5119 z"
       id="path842"
       inkscape:connector-curvature="0"
       sodipodi:nodetypes="cccccc"
       inkscape:export-xdpi="17.32"
       inkscape:export-ydpi="17.32" />
    <path
       sodipodi:type="spiral"
       style="fill:none;fill-rule:evenodd;stroke:#fdfdfd;stroke-width:2.96990347;stroke-linecap:round;stroke-miterlimit:4;stroke-dasharray:none;stroke-opacity:1"
       id="path828"
       sodipodi:cx="-92.53717"
       sodipodi:cy="202.31697"
       sodipodi:expansion="1"
       sodipodi:revolution="2.9991167"
       sodipodi:radius="22.080044"
       sodipodi:argument="-18.435675"
       sodipodi:t0="0.15658277"
       d="m -95.908965,201.55257 c -0.265393,-2.54697 2.177014,-4.41486 4.543124,-4.40239 3.52969,0.0186 5.992592,3.3938 5.790459,6.74505 -0.271853,4.50717 -4.614038,7.58341 -8.946982,7.17853 -5.483876,-0.51243 -9.180636,-5.83566 -8.566586,-11.14892 0.74664,-6.46058 7.057997,-10.78149 13.350838,-9.95465 7.43743,0.97723 12.384602,8.28078 11.342718,15.55277 -1.205565,8.41443 -9.503845,13.98921 -17.754699,12.73078 -9.391547,-1.4324 -15.594847,-10.72711 -14.118847,-19.95662 1.65819,-10.36877 11.950537,-17.20125 22.158556,-15.50692 11.346075,1.88323 18.808201,13.17408 16.894978,24.36049 -0.229238,1.34033 -0.583994,2.65895 -1.057036,3.93378"
       transform="matrix(-1.4173995,0,0,1.3269418,-90.854268,-224.55382)"
       inkscape:export-xdpi="17.32"
       inkscape:export-ydpi="17.32" />
    <ellipse
       style="fill:none;fill-opacity:1;stroke:#000000;stroke-width:1.773;stroke-miterlimit:4;stroke-dasharray:none;stroke-opacity:1"
       id="path826"
       cx="44.504246"
       cy="41.138077"
       rx="35.483982"
       ry="35.219398"
       inkscape:export-xdpi="17.32"
       inkscape:export-ydpi="17.32" />
  </g>
</svg>
